<svg xmlns="http://www.w3.org/2000/svg" viewBox="0 0 310 310" width="512" height="512">
  <rect width="310" height="310" fill="#000" />
  <path fill="#4ea654" fill-rule="evenodd"
    d="M9.1 9C23.1 8.9 37.1 8.6 51.1 9.3 76.1 9.1 101 9.5 126 8.9 146.7 8.9 167.3 8.9 188 8.9 199 9.6 210 9.1 221 9.3 247.6 9.1 274.2 9.4 300.8 9.2 300.8 22.8 300.4 36.4 301.1 50 301.1 59.3 301.1 68.7 301.1 78 300.4 92 301 106 300.7 120 300.6 142.3 300.9 164.7 300.8 187 301.4 198.7 301 210.4 301.1 222 299.9 248.3 301.7 274.6 301 300.9 274.7 301.4 248.3 300 222 300.9 210 300.9 198 301.1 186 300.7 161 300.9 136 300.2 111 300.9 90.3 301.1 69.7 300.5 49 300.7 35.7 301.2 22.4 300.9 9.2 300.9 9.1 286.6 8.9 272.3 9.4 258 9.2 212.3 9.5 166.7 9.3 121 8.6 97.7 9.7 74.3 9.4 51 8.8 37 9.2 23 9.1 9Z M46.1 81.8C46.1 106.2 45.7 130.5 45.7 154.8 70.1 155 94.5 154.6 118.8 155.1 118.6 167.2 118.8 179.3 118.7 191.5 106.5 191.4 94.4 191.4 82.2 191.5 82.1 221.9 82.4 252.2 82.3 282.6 94.3 282.6 106.4 282.6 118.5 282.6 118.5 270.2 118.3 257.9 118.4 245.5 142.8 245.4 167.2 245.8 191.6 245.7 191.5 258 191.7 270.3 191.6 282.6 203.8 282.6 216.1 282.6 228.3 282.6 228.1 253.4 228.3 224.2 228.3 195 228.2 193.7 228.1 192.4 228 191.2 216.2 191.2 204.4 191.3 192.6 191.2 192.4 191 192 190.6 191.8 190.4 191.7 178.7 191.8 166.9 191.7 155.2 202.2 155.2 212.6 155.2 223.1 155.2 236.9 154.4 250.8 155 264.7 154.8 264.7 131.5 264.6 108.3 264.7 85 264.6 83.9 265.2 81.4 263.1 81.8 239.4 81.5 215.6 82.3 191.9 82.1 192 106.3 191.3 130.5 191.6 154.8 167.3 154.6 143 154.9 118.7 154.8 118.8 130.6 118.7 106.3 118.8 82.1 94.6 82.2 70.3 81.7 46.1 81.8Z" />
</svg>